<?xml version="1.0" standalone="no"?>
<!DOCTYPE svg PUBLIC "-//W3C//DTD SVG 20010904//EN"
 "http://www.w3.org/TR/2001/REC-SVG-20010904/DTD/svg10.dtd">
<svg version="1.0" xmlns="http://www.w3.org/2000/svg"
 width="57.000000pt" height="50.000000pt" viewBox="0 0 57.000000 50.000000"
 preserveAspectRatio="xMidYMid meet">

<g transform="translate(0.000000,50.000000) scale(0.100000,-0.100000)"
fill="#000000" stroke="none">
<path d="M432 468 c-19 -19 -15 -66 7 -78 31 -16 49 -12 67 15 15 23 15 27 0
50 -18 27 -54 33 -74 13z"/>
<path d="M312 348 c-7 -7 -12 -24 -12 -38 0 -31 17 -50 45 -50 28 0 45 19 45
50 0 31 -17 50 -45 50 -12 0 -26 -5 -33 -12z"/>
<path d="M192 228 c-15 -15 -15 -61 0 -76 15 -15 51 -15 66 0 15 15 15 61 0
76 -7 7 -21 12 -33 12 -12 0 -26 -5 -33 -12z"/>
<path d="M64 95 c-15 -23 -15 -27 0 -50 30 -45 86 -28 86 27 0 49 -59 65 -86
23z"/>
</g>
</svg>
